<svg xmlns="http://www.w3.org/2000/svg" viewBox="0 0 512 512" role="img" aria-label="Pizza base with tomato sauce and cheese">

  <path d="M 496.14 256 Q 496.14 256 492.94 284.81 Q 489.75 313.61 484.32 343.3 Q 478.89 372.98 460.41 396.85 Q 441.92 420.71 418.91 439.69 Q 395.89 458.67 369.36 471.81 Q 342.83 484.95 314.22 492.38 Q 285.6 499.8 256.16 498.46 Q 226.72 497.11 197.63 491.86 Q 168.54 486.61 141.61 473.67 Q 114.69 460.72 94.37 438.96 Q 74.04 417.2 57.94 392.8 Q 41.83 368.4 27.95 342.02 Q 14.07 315.63 11.93 285.82 Q 9.78 256 15.23 227 Q 20.68 198 30.13 170.21 Q 39.58 142.41 56.65 118.47 Q 73.72 94.52 94.87 73.86 Q 116.02 53.2 142.83 40.74 Q 169.63 28.27 197.65 17.19 Q 225.66 6.1 255.47 10.45 Q 285.29 14.8 315.06 18.27 Q 344.84 21.75 369.24 39.17 Q 393.64 56.6 415.28 76.15 Q 436.93 95.71 453.54 119.66 Q 470.15 143.6 481.28 170.67 Q 492.42 197.73 494.28 226.86 Z" fill="#d3963f"/>
  <path d="M 494.48 256 Q 494.48 256 491.45 287.14 Q 488.42 318.28 473.42 345.57 Q 458.43 372.87 442.82 400.04 Q 427.21 427.21 401.24 444.9 Q 375.27 462.58 346.59 474.82 Q 317.91 487.07 286.96 491.43 Q 256 495.8 224.6 493.1 Q 193.19 490.39 164.79 476.79 Q 136.38 463.19 110.55 445.23 Q 84.73 427.27 65.89 401.95 Q 47.05 376.64 38.8 346.52 Q 30.55 316.41 25.9 286.2 Q 21.25 256 24.37 225.39 Q 27.49 194.77 39.01 166.07 Q 50.53 137.37 70.82 114.24 Q 91.1 91.1 115.08 72.28 Q 139.06 53.45 166.38 38.49 Q 193.71 23.52 224.85 21.42 Q 256 19.31 286.7 23.06 Q 317.41 26.82 346.13 38.49 Q 374.84 50.16 401.14 67.36 Q 427.45 84.55 445.66 110.27 Q 463.87 135.98 475.79 164.95 Q 487.71 193.91 491.09 224.96 Z" fill="#e8ad5c"/>
  <circle cx="406.1" cy="78.16" r="8.45" fill="#c9873f" opacity="0.6"/>
  <circle cx="76.04" cy="108.43" r="5.95" fill="#c9873f" opacity="0.6"/>
  <circle cx="285.11" cy="483.83" r="7.77" fill="#c9873f" opacity="0.6"/>
  <circle cx="340.44" cy="468.97" r="6.13" fill="#c9873f" opacity="0.6"/>
  <circle cx="350.69" cy="457.91" r="5.89" fill="#c9873f" opacity="0.6"/>
  <circle cx="360.04" cy="447.64" r="3.62" fill="#a86a2e" opacity="0.75"/>
  <circle cx="440.06" cy="402.95" r="3.8" fill="#c9873f" opacity="0.6"/>
  <circle cx="359.34" cy="457.1" r="7.16" fill="#c9873f" opacity="0.6"/>
  <circle cx="103.66" cy="421.85" r="7.05" fill="#c9873f" opacity="0.6"/>
  <circle cx="326.8" cy="38.64" r="5.56" fill="#c9873f" opacity="0.6"/>
  <circle cx="49.26" cy="170.16" r="7.38" fill="#c9873f" opacity="0.6"/>
  <circle cx="451.45" cy="363.47" r="7.64" fill="#c9873f" opacity="0.6"/>
  <circle cx="290.98" cy="32.12" r="8.1" fill="#a86a2e" opacity="0.75"/>
  <circle cx="254.11" cy="481.22" r="7.65" fill="#c9873f" opacity="0.6"/>
  <circle cx="61.87" cy="389.66" r="3.38" fill="#f2cf95" opacity="0.8"/>
  <circle cx="45.95" cy="344.84" r="3.34" fill="#f2cf95" opacity="0.8"/>
  <circle cx="193.02" cy="482" r="3.43" fill="#f2cf95" opacity="0.8"/>
  <circle cx="489.19" cy="235.49" r="3.24" fill="#f2cf95" opacity="0.8"/>
  <circle cx="41.71" cy="345.86" r="4.33" fill="#f2cf95" opacity="0.8"/>
  <circle cx="35.76" cy="183.44" r="2.41" fill="#f2cf95" opacity="0.8"/>
  
  <path d="M 459.31 256 Q 459.31 256 455.31 284.68 Q 451.32 313.35 438.37 339.11 Q 425.42 364.88 406.63 386.52 Q 387.85 408.16 365.36 427.19 Q 342.88 446.23 313.9 451.69 Q 284.92 457.16 256.09 456.5 Q 227.27 455.85 198.78 449.76 Q 170.29 443.68 146.56 426.69 Q 122.82 409.7 105.1 387.03 Q 87.38 364.36 72.46 339.32 Q 57.54 314.27 52.16 285.14 Q 46.79 256 52.82 227.05 Q 58.84 198.11 69.82 170.76 Q 80.8 143.4 100.77 121.65 Q 120.74 99.9 144.92 82.8 Q 169.1 65.71 198.23 61.29 Q 227.37 56.88 256.29 54.83 Q 285.22 52.79 313.5 60.48 Q 341.78 68.17 367.29 83.14 Q 392.81 98.12 412.57 120.4 Q 432.33 142.68 444.13 169.99 Q 455.94 197.29 457.62 226.65 Z" fill="#c6503a"/>
  <path d="M 455.94 256 Q 455.94 256 452.81 287.46 Q 449.67 318.93 435.22 347.32 Q 420.78 375.72 397.02 396.55 Q 373.25 417.39 345.87 432.84 Q 318.48 448.29 287.24 449.17 Q 256 450.06 225.23 447.74 Q 194.46 445.41 167.25 430.51 Q 140.04 415.6 116.62 394.95 Q 93.19 374.29 79.73 345.97 Q 66.27 317.65 60.36 286.82 Q 54.45 256 58.32 224.52 Q 62.2 193.03 78.37 165.86 Q 94.54 138.69 115.84 115.54 Q 137.13 92.39 165.93 79.9 Q 194.72 67.41 225.36 61.49 Q 256 55.58 287.12 60.02 Q 318.23 64.47 345.75 79.53 Q 373.27 94.59 394.37 117.36 Q 415.48 140.13 429.12 167.73 Q 442.76 195.32 449.35 225.66 Z" fill="#d4604a" opacity="0.55"/>
  <path d="M 432.19 256 Q 432.19 256 429.33 278.84 Q 426.47 301.68 425.61 327.56 Q 424.76 353.43 408.5 372.84 Q 392.24 392.24 371.27 405.79 Q 350.31 419.34 325.97 422.81 Q 301.63 426.28 278.81 435.33 Q 256 444.38 231.68 440.94 Q 207.37 437.5 184.1 429.17 Q 160.83 420.84 139.16 407.68 Q 117.48 394.52 108.12 370.65 Q 98.76 346.78 82.85 326.72 Q 66.94 306.66 66.97 281.33 Q 67 256 68.72 231.14 Q 70.45 206.28 81.61 184.02 Q 92.76 161.76 106.29 140.78 Q 119.81 119.81 143.21 110.49 Q 166.61 101.17 185.96 83.98 Q 205.3 66.79 230.65 68.33 Q 256 69.86 280.24 72.45 Q 304.49 75.05 325.05 87.92 Q 345.61 100.79 365.83 113.37 Q 386.05 125.95 399.06 145.92 Q 412.07 165.89 426.89 186.06 Q 441.72 206.24 436.95 231.12 Z" fill="#f4d889"/>
  <path d="M 276.25 218 Q 276.25 218 268.19 234.11 Q 260.14 250.22 248.45 263.41 Q 236.76 276.59 218.41 281.86 Q 200.06 287.12 185.57 275.02 Q 171.07 262.92 162.95 248.56 Q 154.83 234.2 156.99 218.63 Q 159.16 203.07 162.96 185.58 Q 166.76 168.09 183.6 159.83 Q 200.45 151.58 220.23 151.94 Q 240 152.3 249.39 169.48 Q 258.78 186.65 267.52 202.33 Z" fill="#f8e3a4" opacity="0.85"/>
  <path d="M 365.67 300 Q 365.67 300 359.24 312.92 Q 352.81 325.85 341.91 338.51 Q 331.02 351.18 312.59 349.69 Q 294.16 348.21 283.13 333.19 Q 272.09 318.17 271.71 299.86 Q 271.33 281.56 282.58 266.39 Q 293.84 251.22 311.66 254.4 Q 329.48 257.58 347.43 260.59 Q 365.37 263.61 365.52 281.8 Z" fill="#f8e3a4" opacity="0.85"/>
  <path d="M 260.52 338 Q 260.52 338 256.91 351.65 Q 253.3 365.3 239.65 369.78 Q 226 374.26 211.36 370.77 Q 196.71 367.29 190.28 352.64 Q 183.84 338 190.78 323.87 Q 197.73 309.73 211.87 303.06 Q 226 296.39 240.12 303.07 Q 254.24 309.76 257.38 323.88 Z" fill="#f8e3a4" opacity="0.85"/>
  <path d="M 349.32 194 Q 349.32 194 342.55 204.89 Q 335.78 215.78 324.89 224.22 Q 314 232.65 302.07 225.26 Q 290.13 217.87 287.59 205.93 Q 285.04 194 286.4 180.88 Q 287.76 167.76 300.88 164.13 Q 314 160.51 326.32 164.94 Q 338.63 169.37 343.97 181.68 Z" fill="#f8e3a4" opacity="0.85"/>
  <path d="M 198.62 278 Q 198.62 278 194.11 291.55 Q 189.61 305.1 174.86 308.82 Q 160.11 312.55 152.42 300.88 Q 144.72 289.21 145 278.13 Q 145.28 267.06 153.58 259.15 Q 161.89 251.25 174.39 252.78 Q 186.88 254.32 192.75 266.16 Z" fill="#f8e3a4" opacity="0.85"/>
  <circle cx="138.66" cy="349.7" r="5.07" fill="#e3bd62" opacity="0.7"/>
  <circle cx="108.86" cy="227.82" r="3.34" fill="#e3bd62" opacity="0.7"/>
  <circle cx="103.36" cy="262.6" r="4.53" fill="#e3bd62" opacity="0.7"/>
  <circle cx="271.62" cy="203.23" r="5.23" fill="#e3bd62" opacity="0.7"/>
  <circle cx="392.53" cy="229.62" r="2.51" fill="#e3bd62" opacity="0.7"/>
  <circle cx="317.54" cy="363.86" r="2.81" fill="#e3bd62" opacity="0.7"/>
  <circle cx="386.68" cy="330.56" r="3.31" fill="#e3bd62" opacity="0.7"/>
  <circle cx="219.37" cy="232.98" r="4.88" fill="#e3bd62" opacity="0.7"/>
  <circle cx="254.2" cy="246.69" r="3.84" fill="#e3bd62" opacity="0.7"/>
  <circle cx="269.48" cy="254.25" r="2.76" fill="#e3bd62" opacity="0.7"/>
  
</svg>
